<?xml version="1.0" encoding="UTF-8" standalone="no"?>
<svg
   version="1.0"
   preserveAspectRatio="xMidYMid"
   id="svg112"
   sodipodi:docname="missy.svg"
   inkscape:version="1.2 (dc2aedaf03, 2022-05-15)"
   viewBox="0 -10 472.50067 411.19528"
   xmlns:inkscape="http://www.inkscape.org/namespaces/inkscape"
   xmlns:sodipodi="http://sodipodi.sourceforge.net/DTD/sodipodi-0.dtd"
   xmlns="http://www.w3.org/2000/svg"
   xmlns:svg="http://www.w3.org/2000/svg">
  <defs
     id="defs116" />
  <sodipodi:namedview
     id="namedview114"
     pagecolor="#ffffff"
     bordercolor="#666666"
     borderopacity="1.0"
     inkscape:showpageshadow="2"
     inkscape:pageopacity="0.0"
     inkscape:pagecheckerboard="0"
     inkscape:deskcolor="#d1d1d1"
     inkscape:document-units="pt"
     showgrid="false"
     inkscape:zoom="2.2351757"
     inkscape:cx="232.8676"
     inkscape:cy="149.65266"
     inkscape:window-width="1920"
     inkscape:window-height="1002"
     inkscape:window-x="-8"
     inkscape:window-y="-8"
     inkscape:window-maximized="1"
     inkscape:current-layer="svg112" />
  <g
     transform="matrix(0.1,0,0,-0.1,-110.03715,690.61916)"
     fill="#000000"
     stroke="none"
     id="g110">
    <path
       d="m 3550,6999 c -36,-6 -75,-17 -87,-24 -12,-8 -35,-15 -51,-15 -45,0 -146,-30 -155,-45 -5,-9 -23,-15 -48,-15 -26,0 -42,-5 -45,-15 -4,-8 -12,-15 -20,-15 -8,0 -14,-4 -14,-9 0,-6 -21,-13 -46,-17 -26,-4 -55,-15 -65,-25 -11,-11 -32,-19 -48,-19 -16,0 -34,-7 -41,-15 -10,-12 -39,-15 -149,-14 -75,1 -183,4 -241,8 -58,3 -134,3 -170,-2 -36,-4 -103,-12 -150,-18 -47,-6 -92,-14 -100,-19 -9,-4 -31,-11 -50,-15 -19,-4 -37,-10 -40,-14 -12,-15 -71,-51 -83,-51 -8,0 -22,-9 -31,-19 -10,-11 -30,-24 -46,-31 -15,-6 -31,-19 -34,-28 -7,-21 -25,-48 -53,-80 -13,-14 -23,-30 -23,-36 0,-18 -56,-72 -89,-86 -17,-7 -29,-16 -26,-20 3,-4 -11,-22 -30,-39 -19,-17 -35,-34 -35,-39 0,-5 -6,-15 -14,-22 -8,-6 -12,-18 -9,-26 3,-9 0,-14 -8,-12 -8,2 -13,-3 -11,-9 1,-7 -3,-13 -9,-13 -5,0 -15,-13 -20,-30 -6,-16 -17,-30 -25,-30 -8,0 -14,-4 -14,-10 0,-5 -9,-10 -20,-10 -12,0 -33,-11 -48,-25 -15,-14 -32,-25 -39,-25 -7,0 -13,-4 -13,-10 0,-5 -5,-10 -11,-10 -11,0 -39,-25 -39,-35 0,-10 -28,-35 -39,-35 -6,0 -11,-9 -11,-19 0,-11 -4,-23 -10,-26 -5,-3 -10,-15 -10,-26 0,-10 -4,-19 -10,-19 -5,0 -10,-11 -10,-24 0,-13 -5,-26 -12,-28 -9,-3 -12,-38 -13,-120 0,-68 -4,-114 -9,-110 -5,3 -7,-2 -3,-11 4,-10 2,-17 -4,-17 -7,0 -9,-10 -5,-25 5,-20 3,-25 -13,-25 -15,0 -21,-9 -26,-37 -3,-21 -10,-62 -15,-92 -13,-73 -13,-318 1,-400 11,-66 16,-92 43,-186 7,-27 19,-70 25,-95 6,-25 13,-49 15,-55 26,-88 41,-127 70,-184 35,-69 68,-165 60,-174 -13,-12 92,-213 152,-292 42,-56 54,-114 54,-271 0,-124 -19,-353 -36,-436 -3,-16 -14,-34 -25,-42 -12,-8 -17,-19 -13,-30 4,-10 1,-16 -7,-16 -8,0 -26,-23 -41,-50 -22,-39 -28,-63 -28,-109 0,-63 13,-111 29,-111 6,0 21,-11 33,-23 21,-21 37,-25 138,-31 115,-7 270,8 270,25 0,5 6,9 13,9 16,0 117,101 117,118 0,7 7,12 15,12 9,0 20,11 25,25 5,14 16,25 25,25 8,0 15,7 15,15 0,8 6,15 13,15 6,0 28,23 47,50 19,28 41,57 48,65 6,7 12,16 12,20 0,3 11,21 26,40 16,22 21,36 14,40 -7,4 -4,13 10,25 18,15 19,21 9,44 -19,40 -1,53 53,37 23,-7 117,-17 208,-22 221,-11 522,-54 595,-85 19,-7 47,-14 62,-14 16,0 73,-11 128,-25 55,-14 123,-25 151,-25 46,0 52,-3 64,-27 7,-16 14,-37 16,-48 9,-71 18,-105 26,-105 5,0 6,-4 3,-10 -6,-10 17,-60 49,-103 58,-78 170,-94 339,-46 27,8 53,22 59,33 7,13 12,15 17,7 12,-19 105,79 141,150 10,19 25,41 34,48 8,7 12,19 9,27 -3,8 0,14 6,14 6,0 11,9 11,20 0,11 5,20 10,20 6,0 8,10 4,24 -4,18 0,30 15,43 13,11 21,29 21,50 0,27 4,33 23,33 12,0 56,10 97,21 41,12 93,26 115,31 22,6 47,16 55,23 8,7 21,10 28,8 6,-3 12,0 12,6 0,6 7,8 15,5 9,-4 15,0 15,9 0,24 39,28 62,5 11,-11 65,-53 119,-94 105,-79 104,-77 114,-184 10,-112 38,-200 62,-200 8,0 12,-4 9,-8 -9,-15 24,-52 64,-72 66,-34 224,-24 252,15 5,6 8,4 8,-5 1,-10 8,-7 23,11 12,15 31,30 43,33 12,4 33,28 47,55 15,27 34,54 42,61 8,7 12,16 9,21 -3,5 2,12 11,15 10,4 13,13 10,24 -3,10 -1,21 5,25 5,3 10,15 10,26 0,10 4,19 10,19 6,0 9,18 7,41 -2,22 2,47 8,56 7,9 10,24 8,33 -3,9 3,25 12,34 10,9 15,19 12,23 -3,3 5,30 19,60 13,31 24,64 24,74 0,10 11,29 23,43 17,19 23,36 22,63 -1,21 3,44 8,50 6,8 5,30 -3,60 -8,33 -8,49 -1,51 6,2 11,10 11,17 0,7 5,15 11,17 5,2 12,15 14,28 2,14 6,43 9,64 4,22 13,48 22,57 9,10 13,23 9,29 -4,6 -1,17 5,25 7,8 9,15 5,15 -5,0 0,9 9,19 14,15 15,24 7,40 -9,17 -7,30 10,68 17,38 19,50 9,66 -8,13 -8,22 -2,26 6,3 9,32 8,64 -2,41 2,60 11,66 11,5 11,14 4,33 -8,21 -6,29 5,39 10,9 14,22 10,41 -3,15 -2,30 3,32 5,3 5,25 1,48 -5,23 -5,51 -1,62 8,24 7,51 -3,83 -4,12 -2,24 3,28 6,3 8,20 5,38 -3,18 -6,41 -8,53 -1,11 -6,25 -10,32 -4,7 -5,21 -1,31 3,11 1,22 -5,26 -6,3 -8,10 -5,15 3,5 1,11 -5,15 -6,4 -8,10 -5,15 5,7 -17,89 -35,135 -9,22 -19,65 -25,110 -2,17 -11,55 -20,85 -9,30 -16,63 -16,72 0,9 -7,19 -15,22 -8,3 -14,14 -14,25 0,31 -50,173 -71,203 -11,14 -16,33 -13,42 3,9 1,16 -5,16 -6,0 -11,8 -11,18 0,10 -7,27 -15,38 -8,10 -15,26 -15,35 0,9 -7,22 -15,29 -9,7 -13,15 -11,18 3,2 -4,21 -15,40 -10,20 -19,42 -19,49 0,7 -3,13 -7,13 -5,0 -17,19 -28,43 -11,23 -22,44 -25,47 -3,3 -12,19 -20,35 -8,17 -46,67 -85,113 -82,98 -115,141 -170,219 -41,59 -154,178 -190,201 -112,69 -380,212 -400,212 -4,0 -35,13 -69,29 -88,43 -160,70 -182,70 -10,0 -44,7 -74,17 -45,14 -105,17 -330,20 -151,1 -304,-2 -340,-7 z m 230,-145 c 0,-2 -14,-4 -31,-4 -16,0 -28,4 -25,9 5,8 56,3 56,-5 z m 163,-1 c -13,-2 -33,-2 -45,0 -13,2 -3,4 22,4 25,0 35,-2 23,-4 z m 156,-44 c 78,-12 117,-26 233,-85 53,-27 97,-44 115,-42 18,1 67,-18 133,-51 201,-102 294,-167 346,-242 14,-21 30,-36 35,-33 8,5 13,-9 10,-28 0,-5 5,-7 12,-5 6,1 11,-4 9,-11 -3,-17 63,-104 129,-171 15,-14 34,-38 44,-53 9,-15 21,-25 26,-22 5,3 9,-3 10,-13 0,-10 14,-40 30,-68 16,-27 37,-67 46,-88 10,-24 21,-36 30,-33 7,3 13,-1 13,-10 0,-8 -4,-13 -9,-9 -10,6 57,-146 68,-155 3,-3 6,-9 6,-15 1,-18 47,-135 54,-135 4,0 8,-12 9,-26 1,-15 6,-32 11,-38 14,-18 70,-207 77,-261 3,-27 12,-68 20,-91 7,-22 15,-49 17,-60 2,-10 7,-26 10,-34 22,-58 47,-241 47,-342 0,-80 -20,-297 -40,-443 -6,-38 -13,-88 -16,-110 -7,-53 -21,-99 -50,-163 -13,-29 -24,-61 -24,-72 0,-10 -5,-22 -10,-25 -6,-4 -10,-18 -10,-33 1,-97 -19,-203 -55,-292 -20,-52 -57,-158 -82,-235 -24,-77 -52,-147 -63,-157 -23,-21 -112,-25 -128,-5 -6,6 -13,30 -17,52 -4,22 -12,45 -16,51 -5,6 -10,29 -12,50 -1,22 -6,42 -12,46 -6,4 -3,12 7,20 16,12 16,16 -2,54 -24,51 -76,104 -154,156 -34,23 -78,58 -99,79 -20,21 -61,56 -90,77 -28,22 -58,46 -66,55 -7,10 -21,17 -30,17 -9,0 -25,7 -35,15 -27,20 -43,19 -56,-5 -8,-15 -5,-25 20,-53 16,-19 30,-39 29,-43 -1,-26 -245,-112 -339,-120 -98,-8 -110,-12 -110,-34 0,-11 -6,-20 -14,-20 -8,0 -17,-15 -20,-35 -5,-26 -12,-35 -23,-33 -10,2 -22,-8 -29,-22 -11,-21 -10,-28 4,-45 14,-17 15,-18 1,-7 -21,15 -29,-1 -29,-56 0,-49 -68,-190 -95,-198 -22,-6 -60,-21 -87,-35 -32,-16 -104,-11 -121,9 -16,18 -32,74 -44,152 -2,19 -13,53 -24,76 -10,22 -19,48 -19,57 0,9 -4,18 -9,21 -4,3 -25,41 -46,83 -73,149 -177,286 -204,269 -12,-8 -15,-66 -3,-66 4,0 9,-12 10,-27 1,-16 7,-29 12,-31 6,-2 10,-10 10,-18 0,-8 5,-14 12,-14 6,0 9,-3 6,-6 -4,-3 11,-36 33,-72 l 38,-67 -40,-3 c -22,-2 -76,6 -122,17 -45,11 -102,23 -127,26 -25,4 -64,13 -88,21 -39,13 -146,32 -307,55 -97,14 -264,28 -352,28 -57,1 -98,7 -133,21 -28,11 -67,20 -86,20 -20,0 -48,8 -62,18 -15,10 -45,24 -67,31 -60,20 -214,109 -262,153 -24,21 -49,38 -58,38 -20,0 -116,70 -110,80 7,11 -43,121 -65,145 -35,38 -115,188 -125,235 -4,19 -10,39 -13,44 -3,5 -6,21 -7,36 -1,14 -19,60 -40,101 -20,41 -46,101 -56,133 -11,33 -24,65 -30,72 -6,7 -8,18 -5,23 4,5 2,13 -4,16 -6,4 -8,15 -5,25 5,17 -12,87 -36,145 -5,11 -11,40 -13,65 -4,43 -8,60 -26,107 -5,12 -6,25 -1,27 9,6 6,115 -4,124 -2,3 0,11 5,17 7,8 7,21 1,37 -7,19 -6,29 7,42 14,13 14,20 4,36 -7,11 -10,30 -7,43 5,20 12,22 68,23 53,0 75,7 149,44 56,28 91,53 100,69 12,23 26,45 85,130 14,19 17,47 18,130 v 106 l -39,53 c -36,49 -37,55 -26,82 7,17 19,30 26,30 8,0 14,7 14,15 0,8 9,24 20,35 11,11 20,27 20,35 0,8 5,15 11,15 20,0 118,85 127,111 6,15 19,35 30,45 11,11 23,31 27,47 4,16 14,27 24,27 10,0 28,11 40,24 13,14 29,22 37,19 8,-3 14,0 14,6 0,18 79,48 160,62 77,14 323,17 560,9 127,-5 137,-4 171,18 20,12 46,22 58,22 11,0 21,5 21,10 0,6 11,10 25,10 13,0 28,7 33,16 5,9 21,17 36,17 14,0 26,3 26,8 0,5 3,8 8,7 8,-1 32,7 82,29 19,8 46,17 60,20 13,2 30,9 37,15 7,6 32,15 56,20 23,4 78,17 122,27 66,16 121,19 309,20 126,1 259,-4 295,-10 z m 156,-9 c 3,-5 1,-10 -4,-10 -6,0 -11,5 -11,10 0,6 2,10 4,10 3,0 8,-4 11,-10 z M 2600,6620 c 0,-5 -4,-10 -10,-10 -5,0 -10,5 -10,10 0,6 5,10 10,10 6,0 10,-4 10,-10 z m 40,0 c 0,-5 -4,-10 -10,-10 -5,0 -10,5 -10,10 0,6 5,10 10,10 6,0 10,-4 10,-10 z m 180,-10 c 0,-5 -5,-10 -11,-10 -5,0 -7,5 -4,10 3,6 8,10 11,10 2,0 4,-4 4,-10 z m 80,0 c 0,-5 -5,-10 -11,-10 -5,0 -7,5 -4,10 3,6 8,10 11,10 2,0 4,-4 4,-10 z M 1385,5887 c -19,-29 -43,-77 -54,-106 -10,-29 -21,-48 -25,-43 -8,13 2,57 21,95 13,26 81,107 89,107 2,0 -12,-24 -31,-53 z m 18,-274 c 53,-6 59,-14 22,-31 -47,-21 -82,-15 -106,20 l -22,31 29,-7 c 16,-5 50,-10 77,-13 z m 4176,-418 c 0,-5 -4,-3 -9,5 -5,8 -9,22 -9,30 0,16 17,-16 18,-35 z M 1160,4980 c 0,-5 -4,-10 -10,-10 -5,0 -10,5 -10,10 0,6 5,10 10,10 6,0 10,-4 10,-10 z m 4497,-332 c -3,-7 -5,-2 -5,12 0,14 2,19 5,13 2,-7 2,-19 0,-25 z M 1766,3838 c 15,-13 34,-30 43,-40 22,-22 157,-98 175,-98 8,0 16,-4 18,-8 4,-10 87,-66 111,-75 19,-7 24,-47 6,-47 -6,0 -8,-7 -5,-16 3,-8 2,-13 -3,-10 -11,7 -25,-30 -42,-104 -12,-56 -49,-119 -97,-167 -15,-15 -26,-33 -24,-40 2,-7 -4,-13 -13,-13 -10,0 -15,-7 -13,-17 2,-10 -2,-18 -8,-18 -6,0 -35,-24 -65,-52 l -54,-53 h -87 c -93,0 -138,11 -134,32 5,23 19,52 35,70 22,25 50,98 50,131 1,15 10,36 22,48 15,15 18,24 9,34 -8,9 -7,17 4,28 11,10 12,17 4,25 -8,8 -6,21 6,47 10,20 15,39 12,42 -2,3 -1,15 4,27 4,12 4,29 -1,38 -5,10 -4,28 3,48 9,27 8,38 -7,62 -15,27 -16,31 -1,47 9,10 13,21 9,25 -11,11 -12,38 -2,58 12,23 13,23 45,-4 z m 600,-347 c -4,-5 0,-12 6,-14 7,-3 0,-6 -17,-6 -29,0 -29,0 -11,14 23,17 30,19 22,6 z m 154,-11 c 0,-5 -7,-10 -16,-10 -8,0 -12,5 -9,10 3,6 10,10 16,10 5,0 9,-4 9,-10 z m -73,-6 c -3,-3 -12,-4 -19,-1 -8,3 -5,6 6,6 11,1 17,-2 13,-5 z m 552,-71 c 2,-2 -5,-3 -16,-3 -11,0 -20,7 -20,15 0,12 3,12 16,3 9,-7 18,-14 20,-15 z m 366,-73 c -3,-5 -12,-10 -18,-10 -7,0 -6,4 3,10 19,12 23,12 15,0 z M 1417,3058 c -3,-8 -6,-5 -6,6 -1,11 2,17 5,13 3,-3 4,-12 1,-19 z m 3723,-68 c 11,-7 5,-10 -23,-10 -23,0 -36,4 -32,10 8,13 35,13 55,0 z m -1410,-25 c 0,-8 -7,-15 -16,-15 -14,0 -14,3 -4,15 7,8 14,15 16,15 2,0 4,-7 4,-15 z m -2195,-25 c 4,-6 -5,-10 -19,-10 -14,0 -26,5 -26,10 0,6 9,10 19,10 11,0 23,-4 26,-10 z m 200,-10 c 4,-6 -6,-10 -22,-10 -22,0 -25,2 -13,10 19,12 27,12 35,0 z m 55,6 c 0,-3 -4,-8 -10,-11 -5,-3 -10,-1 -10,4 0,6 5,11 10,11 6,0 10,-2 10,-4 z"
       id="path60" />
    <path
       d="m 3409,6266 c -25,-7 -89,-40 -141,-75 -77,-51 -101,-73 -129,-119 -33,-55 -34,-59 -31,-149 3,-119 38,-270 80,-349 42,-81 166,-170 278,-199 57,-15 62,-14 149,11 105,30 160,63 231,136 76,79 104,152 104,269 0,215 -105,373 -301,454 -92,38 -157,44 -240,21 z m 281,-196 c 34,-32 34,-51 1,-98 -20,-28 -57,-22 -88,16 -29,35 -28,44 3,81 32,38 44,39 84,1 z m 115,-290 c 14,-84 -44,-176 -155,-244 -58,-36 -101,-45 -157,-32 -44,10 -41,20 10,36 120,38 207,114 253,220 15,33 30,60 34,60 5,0 11,-18 15,-40 z"
       id="path62" />
    <path
       d="m 2030,5585 c -14,-37 -3,-55 35,-55 25,0 34,5 38,22 14,53 -54,84 -73,33 z"
       id="path64" />
    <path
       d="m 2230,5591 c -23,-43 0,-76 44,-65 30,7 45,46 26,69 -18,21 -57,19 -70,-4 z"
       id="path66" />
    <path
       d="m 3908,5283 c -40,-49 -98,-119 -127,-158 -30,-38 -59,-75 -65,-80 -12,-11 -16,-24 -24,-67 -3,-23 -1,-28 16,-28 23,0 22,0 161,185 100,132 131,182 131,209 0,36 -23,20 -92,-61 z"
       id="path68" />
    <path
       d="m 3749,5269 c -6,-13 -19,-35 -27,-49 -11,-19 -5,-15 23,12 29,28 36,41 28,49 -8,8 -14,5 -24,-12 z"
       id="path70" />
    <path
       d="m 3985,5168 c -95,-121 -111,-146 -97,-160 17,-17 61,22 134,119 57,76 69,98 64,118 -4,14 -10,25 -14,25 -4,0 -43,-46 -87,-102 z"
       id="path72" />
    <path
       d="m 1855,5243 c -130,-16 -261,-68 -365,-145 -74,-55 -89,-72 -96,-108 -8,-39 10,-40 51,-1 45,45 188,127 258,150 83,27 206,39 217,21 7,-11 11,-11 24,-1 9,7 27,10 43,7 47,-9 250,-18 397,-17 120,1 138,0 133,-14 -4,-9 -1,-15 8,-15 8,0 15,7 15,16 0,14 8,16 53,11 74,-7 287,-81 386,-133 46,-24 89,-44 97,-44 8,0 14,-4 14,-10 0,-5 5,-10 10,-10 6,0 3,12 -7,28 -63,103 -212,194 -353,217 -116,18 -217,25 -395,25 -135,1 -221,5 -265,15 -61,13 -156,17 -225,8 z"
       id="path74" />
    <path
       d="m 4097,5055 c -37,-58 -31,-80 11,-38 20,19 32,42 32,57 0,37 -11,32 -43,-19 z"
       id="path76" />
  </g>
  <path
     style="fill:#f54444;fill-opacity:1;stroke:#f54444;stroke-width:0.545404;stroke-opacity:1"
     d="m 266.64034,377.69267 c -1.24768,-1.03851 -2.35729,-3.5917 -3.26592,-7.51486 -2.00442,-8.65437 -6.43339,-22.71623 -7.61968,-24.19227 -0.56285,-0.70029 -2.55982,-4.34949 -4.43773,-8.10932 -6.75492,-13.52422 -17.22503,-27.36415 -20.0106,-26.45101 -2.4086,0.78954 -1.19322,8.9361 2.18001,14.61233 0.83234,1.40061 1.85547,3.31354 2.27362,4.25098 0.41814,0.93743 1.95083,3.72361 3.40596,6.19152 1.45513,2.46791 2.6457,4.66129 2.6457,4.87418 0,1.65208 -24.89061,-2.30028 -37.75127,-5.99451 -10.46551,-3.0062 -37.81633,-6.59243 -61.13991,-8.01661 -9.38101,-0.57282 -15.24586,-1.3624 -18.96256,-2.55293 -2.95953,-0.94799 -6.30406,-1.72361 -7.43232,-1.72361 -3.4976,0 -27.442671,-12.15218 -35.002543,-17.76388 -3.88902,-2.88683 -8.060558,-5.62502 -9.270083,-6.08489 -3.641437,-1.38446 -10.397737,-6.7563 -10.398457,-8.26766 -7.5e-4,-2.17367 -4.447965,-10.95655 -8.80785,-17.39586 -5.405033,-7.98295 -9.424965,-16.6681 -11.579288,-25.01734 -0.999922,-3.87527 -3.159787,-9.987 -4.799707,-13.58161 -4.691618,-10.28379 -8.60181,-20.65933 -9.181058,-24.36155 -0.920662,-5.88438 -3.184222,-15.24272 -3.91233,-16.17495 -0.384735,-0.49259 -1.139707,-3.73267 -1.677705,-7.20018 -0.538005,-3.46749 -1.348912,-7.26628 -1.802017,-8.44173 -1.16307,-3.01726 -0.96501,-25.38999 0.237607,-26.83906 0.703515,-0.84768 0.708413,-1.86457 0.01853,-3.84359 -1.15587,-3.31573 -1.191405,-2.91186 0.395835,-4.49911 0.89253,-0.89252 2.928915,-1.3415 6.154178,-1.35687 3.348697,-0.016 6.50469,-0.74524 10.33779,-2.38886 9.844245,-4.22115 12.298957,-6.28818 18.46665,-15.55021 l 5.725612,-8.59814 0.295553,-10.83822 0.29556,-10.8382 -3.478748,-4.607575 c -4.04802,-5.361555 -4.41672,-8.26095 -1.356622,-10.668022 1.167172,-0.918098 2.122132,-1.942913 2.122132,-2.277375 0,-0.992055 5.325225,-8.909348 5.992493,-8.909348 0.337402,0 2.469472,-1.522402 4.73793,-3.383115 4.083255,-3.349306 8.758087,-9.311588 12.188475,-15.545185 0.975967,-1.773503 2.425702,-3.453852 3.221625,-3.734107 0.79593,-0.280257 2.211105,-1.167172 3.144847,-1.970922 3.216188,-2.768462 10.57494,-6.289136 17.185401,-8.222065 4.16408,-1.217597 10.00841,-1.460065 39.61404,-1.643497 38.05416,-0.235778 33.90568,0.233874 44.91928,-5.085338 1.32172,-0.638349 3.08937,-1.160634 3.92811,-1.160634 0.83874,0 1.98822,-0.558181 2.55442,-1.240404 0.56619,-0.682222 1.85441,-1.483314 2.86271,-1.780205 4.14192,-1.219581 20.62035,-7.252966 22.06861,-8.080166 0.85834,-0.490256 6.3971,-2.031721 12.30834,-3.425478 9.7494,-2.2987188 12.56119,-2.5796258 30.2713,-3.0242128 21.87505,-0.549141 37.44763,0.506976 44.61991,3.0260848 2.5374,0.891205 8.62428,3.525795 13.52641,5.854644 4.90212,2.328849 10.44087,4.451394 12.30833,4.716769 4.43377,0.630053 23.39851,10.070072 33.10521,16.478667 6.82172,4.50386 19.09915,16.230383 19.09915,18.24213 0,0.391227 0.37479,1.172679 0.83286,1.736559 0.45806,0.563881 3.11748,4.081102 5.90983,7.81605 2.79235,3.73494 7.57434,9.442193 10.62664,12.682785 3.05231,3.240585 5.54965,6.097763 5.54965,6.349283 0,1.53942 9.14263,17.977797 10.18622,18.314727 0.70029,0.22611 1.30971,1.46514 1.35425,2.75343 0.0446,1.28829 1.64589,5.78019 3.55855,9.982 3.43626,7.54891 7.09053,16.27459 8.88736,21.22128 0.50873,1.4006 1.83138,4.94793 2.93919,7.88294 1.1078,2.93501 3.18619,10.19268 4.61862,16.12817 1.43244,5.93549 3.89482,15.56658 5.47197,21.40243 3.5767,13.23465 5.39072,25.7817 5.41086,37.42534 0.0299,17.24528 -4.67979,56.84717 -7.75957,65.24803 -5.62136,15.33367 -6.60006,18.86866 -7.4239,26.81461 -0.48622,4.68968 -1.80062,11.56538 -2.9209,15.27933 -3.49255,11.57853 -14.58972,42.52311 -16.04701,44.7472 -0.99149,1.51322 -2.45416,2.27848 -5.1186,2.67803 -6.04525,0.90654 -7.68917,-0.2088 -9.468,-6.42366 -2.61803,-9.14687 -3.81875,-15.555 -2.97123,-15.85714 1.27231,-0.45359 0.92106,-3.35552 -0.8175,-6.7539 -2.15748,-4.2173 -6.63807,-8.70242 -14.42889,-14.44355 -3.54997,-2.61601 -8.36441,-6.51587 -10.69875,-8.66637 -5.52222,-5.0873 -17.19837,-14.41793 -18.04228,-14.41793 -0.36167,0 -2.07053,-0.75728 -3.79745,-1.68286 -5.95638,-3.19244 -8.35002,0.49113 -4.134,6.36183 1.44667,2.01445 2.63032,3.91065 2.63032,4.21376 0,0.9095 -10.06136,5.16594 -18.81598,7.96006 -4.51295,1.44036 -11.77062,3.04957 -16.12818,3.57603 -8.04462,0.97192 -10.04496,1.74737 -10.04496,3.89402 0,0.65779 -0.54963,1.40689 -1.2214,1.66468 -0.67177,0.25779 -1.47146,1.6072 -1.7771,2.99871 -0.32121,1.46249 -1.3781,2.90472 -2.50481,3.41809 -2.15865,0.98355 -4.1597,4.58033 -3.31166,5.9525 0.29918,0.48408 0.13535,1.13268 -0.36406,1.44134 -0.49942,0.30865 -1.3042,3.03532 -1.78841,6.05926 -0.51157,3.19479 -2.22147,8.16513 -4.08163,11.86447 -3.00242,5.97101 -3.51753,6.5198 -8.29434,8.83686 -6.55237,3.17831 -13.64353,3.8939 -16.34064,1.64898 z M 200.21799,194.59296 c 0,-3.15517 -7.8403,-11.13248 -15.81418,-16.09057 -11.51785,-7.16168 -20.86276,-8.90539 -53.3672,-9.95804 -13.53918,-0.43846 -29.81086,-1.41836 -36.159298,-2.17755 -13.34604,-1.59601 -21.55425,-0.91814 -33.3315,2.75268 -16.403183,5.11267 -32.781263,17.02972 -32.79261,23.86063 -0.0045,2.59666 1.891057,2.42052 5.272612,-0.49 7.906905,-6.80553 21.258165,-14.05143 30.020348,-16.29242 5.722522,-1.46357 8.61468,-1.66322 19.45467,-1.34298 7.00308,0.20688 22.664428,0.6537 34.803008,0.99292 17.14742,0.47919 22.22154,0.87299 22.74895,1.76549 0.94984,1.60735 3.14101,1.43611 3.14101,-0.24548 0,-3.73378 23.87556,2.94529 43.42761,12.14867 5.76095,2.71174 10.60177,5.22117 10.7574,5.5765 0.47636,1.0877 1.83918,0.71731 1.83918,-0.49985 z m 67.34886,-4.58384 c 7.05733,-8.77713 19.17597,-25.63168 20.99935,-29.20584 1.90325,-3.73067 2.11424,-6.65812 0.47987,-6.65812 -1.63441,0 -8.00289,6.98419 -19.48245,21.36604 -8.54073,10.70002 -10.01504,13.00033 -10.47284,16.34038 -0.51463,3.75465 -0.45772,3.88729 1.6681,3.88729 1.69627,0 3.25728,-1.31378 6.80797,-5.72975 z m 33.12471,-0.60411 c 2.51118,-2.32729 4.23298,-6.09606 3.57199,-7.81857 -0.76151,-1.98447 -1.94267,-1.22626 -4.64147,2.97947 -4.01447,6.25598 -3.41009,8.99062 1.06948,4.8391 z m -14.33103,-4.11147 c 7.29036,-7.63748 12.46623,-15.62562 12.15149,-18.75394 -0.13844,-1.37605 -0.67504,-2.64059 -1.19243,-2.81011 -1.80919,-0.59275 -19.00729,21.95132 -19.00729,24.91563 0,3.41866 2.63191,2.32264 8.04823,-3.35158 z m -18.60171,-22.56738 c -1.03543,-1.67537 -2.06539,-1.01358 -4.26564,2.74086 -3.0693,5.23739 -2.68113,5.72901 1.34475,1.70312 1.93383,-1.93383 3.24209,-3.92428 2.92089,-4.44398 z m -14.18694,-11.08713 c 9.08102,-2.96753 13.40136,-5.49277 19.47526,-11.3833 8.93323,-8.66352 12.06419,-16.18179 12.04343,-28.91942 -0.024,-14.73122 -4.11502,-25.1957 -13.47105,-34.4579 -9.65271,-9.555892 -22.44944,-14.941254 -33.77621,-14.214346 -7.4029,0.475089 -15.04065,3.888751 -24.97213,11.161186 -8.20561,6.008648 -12.01373,11.996025 -12.50145,19.6556 -0.6458,10.14197 2.72472,27.925 7.17033,37.83117 2.77385,6.18094 10.27719,13.49609 18.12126,17.66678 11.08104,5.89176 16.45446,6.40392 27.91056,2.66023 z M 118.14743,137.88991 c 4.99482,-2.62907 3.62608,-8.36144 -1.99649,-8.36144 -5.25392,0 -5.79244,9.11613 -0.55007,9.31155 0.38085,0.0142 1.5268,-0.41335 2.54656,-0.95011 z m -17.78767,-1.73805 c 1.50196,-2.39934 -0.31147,-6.14697 -3.131948,-6.47251 -1.30353,-0.15045 -2.919923,0.1828 -3.591998,0.74058 -1.500645,1.24543 -1.619085,6.43909 -0.160875,7.0546 2.04429,0.8629 5.991353,0.10461 6.884821,-1.32267 z"
     id="path11642" />
  <path
     style="fill:#f54444;fill-opacity:1;stroke:#f54444;stroke-width:0.545404;stroke-opacity:1"
     d="m 54.215567,381.9207 c -7.198725,-1.13387 -7.503638,-2.16607 -2.861543,-9.68687 1.694235,-2.74487 3.63294,-7.38624 4.30824,-10.31416 0.6753,-2.92791 1.810598,-5.96918 2.52288,-6.75837 0.800663,-0.88711 1.4001,-3.53655 1.5702,-6.94014 0.151335,-3.02789 0.757808,-6.39302 1.347735,-7.47806 0.753083,-1.38513 1.080045,-6.71385 1.09764,-17.88875 l 0.02505,-15.91597 h 2.024348 c 1.196317,0 3.71925,1.52387 6.167985,3.72549 2.278995,2.04901 7.491892,5.4137 11.584207,7.47708 9.139883,4.6084 19.691121,11.42691 20.353481,13.153 0.27043,0.70472 0.14953,1.52925 -0.26864,1.83228 -1.51008,1.09427 -3.603741,5.75261 -4.989276,11.10101 -1.82697,7.05243 -4.504305,12.25209 -8.839845,17.16789 -1.9161,2.17254 -3.483817,4.55994 -3.483817,5.30532 0,0.74538 -0.572978,1.35523 -1.273275,1.35523 -0.700305,0 -1.273283,0.42126 -1.273283,0.93614 0,0.51489 -2.960362,3.75032 -6.578595,7.18986 l -6.578595,6.25371 -6.36639,-0.0902 c -3.50151,-0.0496 -7.321342,-0.24063 -8.488507,-0.42447 z"
     id="path11644" />
</svg>
