<?xml version="1.0" encoding="UTF-8" standalone="no"?><!DOCTYPE svg PUBLIC "-//W3C//DTD SVG 1.1//EN" "http://www.w3.org/Graphics/SVG/1.1/DTD/svg11.dtd"><svg width="100%" height="100%" viewBox="0 0 1920 1920" version="1.1" xmlns="http://www.w3.org/2000/svg" xmlns:xlink="http://www.w3.org/1999/xlink" xml:space="preserve" xmlns:serif="http://www.serif.com/" style="fill-rule:evenodd;clip-rule:evenodd;stroke-linecap:round;stroke-linejoin:round;stroke-miterlimit:1.5;"><path d="M467.286,892.544c-188.202,9.268 -298.163,-236.696 -173.579,-474.334c2.06,72.644 38.679,112.232 83.983,143.513c-39.132,-106.127 -15.162,-366.494 148.339,-498.394c-31.421,60.255 -26.04,126.05 63.826,220.06c79.954,83.64 162.261,160.818 120.686,309.973c43.594,-13.721 69.308,-46.941 90.153,-72.036c-6.15,139.618 -73.866,189.453 -170.141,197.639c-25.548,-101.608 -68.151,-167.682 -116.244,-222.321c8.819,44.648 16.91,113.37 -36.331,174.317c-24.349,27.873 -13.688,55.175 -26.781,87.304c-16.623,3.087 -27.441,-27.49 -30.314,-70.234c-14.546,68.171 -7.813,136.342 46.403,204.513Z" style="fill:none;stroke:#e41a47;stroke-width:17.47px;"/><path d="M538.971,841.373l3.46,-16.146l15.858,-18.559l23.355,-14.6l25.373,-8.073l16.724,-1.442l24.22,-2.018l16.435,5.767l24.796,-2.307l27.68,0.865l19.03,-7.208l37.772,-7.209l21.913,-0.865l15.066,-5.766l21.048,0.865l16.147,-1.73l26.959,-7.209l22.49,-3.748l13.84,-10.957l18.742,-4.325l19.895,-5.766l16.146,-0l19.607,-7.785l3.172,17.3l0.865,16.435l-4.037,16.435l-13.617,8.361l-12.333,10.092l-20.183,2.595l-17.3,1.153l-22.49,2.307l-21.625,3.46l-15.859,5.373l-13.551,6.449l-21.049,3.171l-32.581,0l-17.012,-2.595l-11.245,4.902l-8.362,7.785l-13.551,5.478l-29.627,17.877l-23.355,6.343l-16.723,6.055l-16.435,5.767l-16.435,1.73l-17.3,7.208c0,0 -12.687,0.577 -15.858,0.577c-3.172,0 -16.435,1.153 -16.435,1.153l-17.877,0.289l-18.453,-4.037l-10.092,-13.263l-7.208,-20.184Z" style="fill:#e41a47;stroke:#e41a47;stroke-width:17.47px;"/><path d="M985.527,723.157l112.267,-22.409l112.72,-32.438l89.023,-16.579l90.645,-24.148l121.961,-28.491l123.19,-21.118l43.996,64.234l-70.394,10.559l-112.63,15.839l-59.835,13.199l-111.75,15.838l-60.715,11.439l-47.516,14.075l-53.675,17.603l-41.357,7.039l-52.795,9.679l-79.098,16.719l-4.037,-51.04Z" style="fill:none;stroke:#e41a47;stroke-width:17.47px;"/><path d="M292.9,1124.9c-4.107,6.738 -10.844,13.805 -19.388,13.805c-20.045,-0 -21.36,-31.554 -21.36,-45.852c0,-14.463 1.315,-46.017 21.36,-46.017c8.38,0 13.966,6.081 17.417,12.983l9.365,-5.588c-5.751,-10.51 -14.295,-17.726 -26.782,-17.726c-28.577,0 -32.841,34.49 -32.841,56.348c0,21.693 4.264,56.183 32.841,56.183c12.487,-0 22.017,-7.543 28.425,-17.891l-9.037,-6.245Z" style="fill:#e41a47;fill-rule:nonzero;"/><path d="M369.807,1036.5c-29.239,0 -30.387,38.105 -30.387,56.183c-0,14.134 -0.822,56.348 30.387,56.348c30.879,-0 30.386,-42.543 30.386,-56.348c0,-14.462 0.493,-56.183 -30.386,-56.183Zm-0,10.331c19.397,0 18.905,25.145 18.905,45.852c0,19.064 0.164,46.017 -18.905,46.017c-15.454,-0 -18.906,-16.435 -18.906,-46.017c-0,-16.106 -0.492,-45.852 18.906,-45.852Z" style="fill:#e41a47;fill-rule:nonzero;"/><path d="M468.466,1084.46l-15.788,-46.479l-13.667,0l-3.291,109.573l11.529,-0l2.14,-91.355l0.329,-0l18.748,55.043l18.748,-55.043l0.329,-0l2.127,91.355l11.573,-0l-3.271,-109.573l-13.718,0l-15.788,46.479Z" style="fill:#e41a47;fill-rule:nonzero;"/><path d="M555.3,1098.76l16.441,-0c15.126,-0 26.607,-11.238 26.607,-31.664c0,-18.778 -10.825,-29.11 -30.224,-29.11l-23.812,0l-0,109.573l10.988,-0l-0,-48.799Zm-0,-50.936l12.66,0c11.838,0 18.907,5.765 18.907,19.272c0,13.837 -5.918,21.579 -16.112,21.743l-15.455,0.164l-0,-41.179Z" style="fill:#e41a47;fill-rule:nonzero;"/><path d="M680.508,1113.71l8.541,35.983l10.842,-2.958l-27.76,-108.751l-13.141,0l-27.759,108.751l10.841,2.958l8.541,-35.983l29.895,-0Zm-2.628,-9.838l-24.639,-0l12.155,-51.285l0.329,0l12.155,51.285Z" style="fill:#e41a47;fill-rule:nonzero;"/><path d="M758.898,1147.56l10.988,-0l-0,-99.735l23.167,0l0,-9.838l-57.816,0l0,9.838l23.661,0l-0,99.735Z" style="fill:#e41a47;fill-rule:nonzero;"/><path d="M857.154,1137.72l-14.788,0l-0,9.838l40.728,-0l-0,-9.838l-14.952,0l-0,-89.897l14.952,0l-0,-9.838l-40.728,0l-0,9.838l14.788,0l-0,89.897Z" style="fill:#e41a47;fill-rule:nonzero;"/><path d="M951.939,1137.72l-0,-44.877l12.002,0c11.509,0 19.565,5.425 19.565,21.699c0,15.945 -6.741,23.178 -16.606,23.178l-14.961,0Zm-0,-54.714l-0,-35.183l6.412,0c13.32,0 20.062,4.275 20.062,17.756c-0,11.508 -5.262,17.427 -16.608,17.427l-9.866,-0Zm15.457,64.552c15.124,-0 27.591,-10.002 27.591,-32.852c0,-13.15 -4.428,-22.518 -16.742,-27.929c8.04,-4.429 11.649,-12.156 11.649,-21.198c-0,-17.591 -12.303,-27.594 -24.307,-27.594l-33.509,0l-0,9.838l8.873,0l-0,89.897l-8.873,0l-0,9.838l35.318,-0Z" style="fill:#e41a47;fill-rule:nonzero;"/><path d="M1038.38,1147.56l56.008,-0l0,-9.838l-45.02,0l0,-99.735l-10.988,0l0,109.573Z" style="fill:#e41a47;fill-rule:nonzero;"/><path d="M1135,1147.56l53.379,-0l0,-9.838l-42.391,0l0,-43.891l34.998,0l-0,-9.838l-34.998,0l0,-36.168l42.391,0l0,-9.838l-53.379,0l-0,109.573Z" style="fill:#e41a47;fill-rule:nonzero;"/><path d="M1378.81,1035.85l-5.256,82.305l-0.329,0l-15.933,-57.659l-3.285,0l-15.933,57.659l-0.328,0l-5.256,-82.305l-11.006,2.136l11.006,111.709l4.763,-0l18.233,-66.201l0.328,0l18.233,66.201l4.763,-0l11.006,-111.709l-11.006,-2.136Z" style="fill:#e41a47;fill-rule:nonzero;"/><path d="M1448.66,1137.72l-14.787,0l-0,9.838l40.728,-0l-0,-9.838l-14.952,0l-0,-89.897l14.952,0l-0,-9.838l-40.728,0l-0,9.838l14.787,0l0,89.897Z" style="fill:#e41a47;fill-rule:nonzero;"/><path d="M1547.58,1147.56l10.988,-0l-0,-99.735l23.167,0l0,-9.838l-57.816,0l0,9.838l23.661,0l-0,99.735Z" style="fill:#e41a47;fill-rule:nonzero;"/><path d="M1623.49,1147.56l10.988,-0l-0,-53.729l33.868,0l-0,53.729l10.988,-0l-0,-109.573l-10.988,0l-0,46.006l-33.868,0l-0,-46.006l-10.988,0l-0,109.573Z" style="fill:#e41a47;fill-rule:nonzero;"/><path d="M240.671,1849.13l0,-679.733l71.65,0l0,618.454l50.909,-0l0,61.279l-122.559,0Z" style="fill:#e41a47;fill-rule:nonzero;"/><rect x="373.601" y="1169.4" width="71.65" height="679.733" style="fill:#e41a47;fill-rule:nonzero;"/><path d="M479.19,1794.45l0,-569.429c0,-22.627 6.128,-38.497 18.384,-47.61c12.256,-9.113 35.04,-13.67 68.351,-13.67c33.311,-0 56.565,4.714 69.764,14.141c13.199,9.428 19.798,25.141 19.798,47.139l0,166.869l-70.707,-0l-0,-146.129c-0,-9.427 -5.171,-14.141 -15.512,-14.141c-5.175,-0.629 -9.54,0.628 -13.095,3.771c-3.555,3.142 -5.333,7.542 -5.333,13.199l0,518.52l16.97,20.741l16.97,-20.741l-0,-197.038l70.707,0l0,224.378c0,20.741 -6.599,36.296 -19.798,46.667c-13.199,10.37 -34.254,15.555 -63.165,15.555c-11.313,0 -24.198,-0.942 -38.653,-2.828c-36.454,-5.656 -54.681,-25.455 -54.681,-59.394Z" style="fill:#e41a47;fill-rule:nonzero;"/><path d="M689.427,1849.13l-0,-679.733l71.65,0l-0,281.887l33.939,-0l0,-281.887l70.708,0l-0,679.733l-70.708,0l0,-336.566l-33.939,-0l-0,336.566l-71.65,0Z" style="fill:#e41a47;fill-rule:nonzero;"/><path d="M899.663,1794.45l0,-569.429c0,-21.37 6.757,-36.925 20.27,-46.667c13.512,-9.742 36.296,-14.613 68.35,-14.613c33.311,-0 56.252,4.714 68.822,14.141c12.57,9.428 18.855,25.141 18.855,47.139l-0,569.429c-0,21.369 -6.914,36.925 -20.741,46.667c-13.827,9.742 -37.082,14.613 -69.764,14.613c-30.169,-0 -52.01,-5.028 -65.522,-15.085c-13.513,-10.056 -20.27,-25.454 -20.27,-46.195Zm105.59,-16.94l-0,-536.492c-0,-5.018 -1.729,-9.253 -5.186,-12.705c-3.456,-3.452 -7.385,-5.178 -11.784,-5.178c-3.771,-0 -7.856,1.566 -12.256,4.699c-3.143,4.4 -4.714,8.794 -4.714,13.184l0,538.377c0,11.294 5.343,16.312 16.027,15.055c11.942,-0 17.913,-5.647 17.913,-16.94Z" style="fill:#e41a47;fill-rule:nonzero;"/><path d="M1109.9,1849.13l0,-679.733l104.809,-0.029l64.094,433.922l60.94,-433.775l103.896,-0.118l-0,679.733l-70.707,0l-0,-442.156l-66.009,442.156l-59.364,0l-66.008,-442.156l-0,442.156l-71.651,0Z" style="fill:#e41a47;fill-rule:nonzero;"/><path d="M1454.01,1849.13l49.967,-679.733l125.387,0l49.967,679.733l-71.842,0.015l-13.699,-173.439l-56.124,-0.059l-11.799,173.498l-71.857,-0.015Zm111.703,-593.971l-25.454,359.194l51.866,0.059l-26.412,-359.253Z" style="fill:#e41a47;fill-rule:nonzero;"/></svg>